<?xml version="1.0" standalone="no"?>
<!DOCTYPE svg PUBLIC "-//W3C//DTD SVG 20010904//EN"
 "http://www.w3.org/TR/2001/REC-SVG-20010904/DTD/svg10.dtd">
<svg version="1.0" xmlns="http://www.w3.org/2000/svg"
 width="260.000000pt" height="260.000000pt" viewBox="0 0 260.000000 260.000000"
 preserveAspectRatio="xMidYMid meet">
<metadata>
Created by potrace 1.11, written by Peter Selinger 2001-2013
</metadata>
<g transform="translate(0.000000,260.000000) scale(0.100000,-0.100000)"
fill="#000000" stroke="none">
<path d="M1177 2530 c-215 -23 -285 -55 -398 -185 -71 -83 -84 -93 -136 -109
-107 -33 -176 -73 -257 -150 l-79 -74 6 -104 c6 -118 26 -182 76 -239 69 -82
160 -105 384 -96 91 4 174 12 207 22 71 20 215 31 223 17 4 -5 -4 -13 -17 -16
-23 -6 -117 -99 -171 -170 -19 -25 -25 -40 -18 -47 7 -7 34 18 84 78 41 48 90
96 110 105 42 21 107 26 212 15 66 -7 77 -6 77 6 0 11 -16 17 -57 22 -85 10
-85 11 -3 25 104 17 166 42 250 101 71 50 130 123 130 161 0 10 5 18 11 18 7
0 9 -14 5 -37 -19 -124 -1 -462 24 -478 5 -3 37 8 72 25 73 35 87 36 134 14
69 -33 86 -115 48 -234 -29 -93 -68 -144 -139 -181 l-46 -24 -24 27 c-26 30
-29 29 -40 -20 -6 -31 -6 -32 29 -32 33 0 37 -4 85 -84 64 -105 113 -150 177
-164 115 -25 231 26 281 123 21 39 20 200 -1 308 -18 90 -44 143 -124 247 -44
58 -70 81 -113 103 l-55 28 9 72 c5 40 7 135 4 212 -4 117 -9 154 -32 225 -38
119 -56 150 -132 231 -75 79 -123 115 -215 161 -178 88 -367 120 -581 98z"/>
<path d="M462 1528 c3 -7 15 -14 29 -16 79 -8 92 -15 172 -87 56 -51 85 -71
92 -64 13 13 -126 146 -172 166 -42 17 -126 18 -121 1z"/>
<path d="M1145 1368 c-55 -30 -110 -108 -76 -108 5 0 15 -24 23 -52 13 -48 18
-53 51 -61 48 -12 83 9 89 53 5 32 -4 103 -17 132 -7 19 1 17 91 -16 22 -8 71
-15 110 -16 100 -2 104 -2 104 15 0 12 -16 15 -84 15 -65 0 -99 6 -150 25 -72
27 -110 31 -141 13z m3 -90 c31 -31 0 -105 -33 -78 -25 21 -14 90 15 90 3 0
11 -5 18 -12z"/>
<path d="M1954 1370 c-20 -8 -74 -69 -74 -82 0 -16 36 -15 81 2 27 11 59 20
70 20 25 0 36 27 18 45 -19 18 -69 26 -95 15z"/>
<path d="M540 1333 c-33 -13 -70 -45 -70 -60 0 -9 6 -13 15 -9 12 4 15 -3 15
-30 0 -77 40 -124 95 -110 30 8 38 27 44 111 l6 70 53 -49 c54 -51 78 -55 50
-8 -27 46 -91 84 -145 88 -26 2 -55 1 -63 -3z m35 -113 c0 -28 -4 -35 -20 -35
-13 0 -21 8 -23 23 -5 34 5 54 25 50 13 -2 18 -13 18 -38z"/>
<path d="M1999 1174 c-8 -10 -29 -23 -46 -31 -22 -9 -33 -20 -33 -33 0 -45 82
-5 94 46 9 33 3 39 -15 18z"/>
<path d="M786 1053 c-44 -151 -44 -148 -1 -188 59 -57 142 -47 189 21 34 51
22 58 -18 11 -52 -62 -132 -63 -172 -2 -14 22 -13 29 9 102 31 98 42 153 30
153 -5 0 -22 -44 -37 -97z"/>
<path d="M930 725 c-20 -11 -34 -11 -68 -2 -23 6 -45 8 -49 3 -4 -4 -9 -40
-11 -80 -3 -61 0 -80 19 -117 18 -34 25 -66 29 -143 l6 -98 38 -35 c35 -32 43
-35 83 -30 82 9 124 76 148 240 19 126 20 121 -83 220 -64 61 -73 64 -112 42z
m87 -113 l20 -27 -21 -16 c-27 -21 -111 -32 -151 -21 -32 9 -41 28 -31 68 6
23 10 24 84 24 74 0 79 -2 99 -28z"/>
</g>
</svg>
